<svg width="40px" height="38px" viewBox="0 0 40 38" version="1.1" xmlns="http://www.w3.org/2000/svg" xmlns:xlink="http://www.w3.org/1999/xlink">
	<!-- Generator: Sketch 46.2 (44496) - http://www.bohemiancoding.com/sketch -->
	<desc>Created with Sketch.</desc>
	<defs></defs>
	<g id="do" stroke="none" stroke-width="1" fill="none" fill-rule="evenodd" opacity="0.6">
		<g id="2-Sign-Up" transform="translate(-55.000000, -366.000000)" stroke="#FFFFFF" stroke-width="2">
			<g id="name" transform="translate(0.000000, 360.000000)">
				<g transform="translate(50.000000, 0.934833)" id="group">
					<g transform="translate(5.000000, 5.000000)">
						<path d="M39,36.7725694 L39,37.7725694 L40,36.7725694 L39,36.7725694 Z M1,36.7725694 L0,36.7725694 L1,37.7725694 L1,36.7725694 Z M39,36.7725694 L1,36.7725694 L1,32.71875 C1,27.7229014 11.2083842,23.6111111 20,23.6111111 C28.7916158,23.6111111 39,27.7229014 39,32.71875 L39,36.7725694 Z M20,17.6666667 C24.4008217,17.6666667 28,14.117477 28,9.79166667 C28,5.46585633 24.4008217,1.91666667 20,1.91666667 C15.5991783,1.91666667 12,5.46585633 12,9.79166667 C12,14.117477 15.5991783,17.6666667 20,17.6666667 Z" id="shape"></path>
					</g>
				</g>
			</g>
		</g>
	</g>
</svg>