
<svg width="36px" height="36px" viewBox="0 0 36 36" version="1.1" xmlns="http://www.w3.org/2000/svg" xmlns:xlink="http://www.w3.org/1999/xlink">
	<!-- Generator: Sketch 46.2 (44496) - http://www.bohemiancoding.com/sketch -->
	<desc>Created with Sketch.</desc>
	<defs></defs>
	<g id="do" stroke="none" stroke-width="1" fill="none" fill-rule="evenodd">
		<g id="13-Navigation" transform="translate(-57.000000, -670.000000)" stroke="#1D1D26" stroke-width="2">
			<g id="groups" transform="translate(50.000000, 663.000000)">
				<g id="group">
					<g transform="translate(7.000000, 7.000000)">
						<path d="M7,13 C10.3137085,13 13,10.3137085 13,7 C13,3.6862915 10.3137085,1 7,1 C3.6862915,1 1,3.6862915 1,7 C1,10.3137085 3.6862915,13 7,13 Z M29,13 C32.3137085,13 35,10.3137085 35,7 C35,3.6862915 32.3137085,1 29,1 C25.6862915,1 23,3.6862915 23,7 C23,10.3137085 25.6862915,13 29,13 Z M7,35 C10.3137085,35 13,32.3137085 13,29 C13,25.6862915 10.3137085,23 7,23 C3.6862915,23 1,25.6862915 1,29 C1,32.3137085 3.6862915,35 7,35 Z M29,35 C32.3137085,35 35,32.3137085 35,29 C35,25.6862915 32.3137085,23 29,23 C25.6862915,23 23,25.6862915 23,29 C23,32.3137085 25.6862915,35 29,35 Z" id="shape"></path>
					</g>
				</g>
			</g>
		</g>
	</g>
</svg>